<?xml version="1.0" encoding="UTF-8"?><svg id="Layer_2" xmlns="http://www.w3.org/2000/svg" viewBox="0 0 800 800"><defs><style>.cls-1{fill:none;stroke:#dafa75;stroke-miterlimit:10;stroke-width:.98px;}.cls-2{font-family:Satoshi-Bold, Satoshi;font-size:77.41px;font-weight:700;}.cls-2,.cls-3{fill:#dafa75;}</style></defs><path class="cls-3" d="M475.67,659.46c-66.64,0-111.44-43.04-111.52-107.12h67.07c.04,14.44,4.28,26.41,12.28,34.62,8.03,8.24,19.74,12.6,33.86,12.6,30.8,0,49.93-20.26,49.93-52.88s-18.19-51.2-48.67-51.2c-20.37,0-39.97,10.73-47.74,26.11l-62.06-11.74,39.12-167.02h169.13v62.85h-120.52l-12.21,45.48,7.7-3.48c12.06-5.44,26.64-8.32,42.17-8.32,61.41,0,102.67,41.43,102.67,103.09,0,34.24-11.62,63.53-33.61,84.7-21.95,21.13-52.24,32.3-87.6,32.3Z"/><path class="cls-3" d="M313.14,322.23l-102.86,85.58v50.59l162.72-.62,14.87-63.46h-68.82l46.79-39.2c38.78-32.46,64.5-67.03,64.5-109.6,0-66.61-42.58-104.97-113.82-104.97s-113.4,45.53-113.4,115.51h67.87c0-34.99,16.86-54.8,45.95-54.8s43.42,16.86,43.42,48.48c0,25.72-13.91,45.11-47.21,72.51Z"/><polygon class="cls-3" points="432.86 457.55 432.86 394.32 395.69 394.32 380.83 457.75 432.86 457.55"/><text class="cls-2" transform="translate(441.4 331.71)"><tspan x="0" y="0">FPS</tspan></text><line class="cls-1" x1="450.11" y1="249.08" x2="450.11" y2="266.36"/><line class="cls-1" x1="461.35" y1="257.72" x2="461.35" y2="266.36"/><line class="cls-1" x1="472.58" y1="257.72" x2="472.58" y2="266.36"/><line class="cls-1" x1="483.82" y1="257.72" x2="483.82" y2="266.36"/><line class="cls-1" x1="495.05" y1="257.72" x2="495.05" y2="266.36"/><line class="cls-1" x1="506.29" y1="257.72" x2="506.29" y2="266.36"/><line class="cls-1" x1="517.52" y1="257.72" x2="517.52" y2="266.36"/><line class="cls-1" x1="528.75" y1="257.72" x2="528.75" y2="266.36"/><line class="cls-1" x1="539.99" y1="257.72" x2="539.99" y2="266.36"/><line class="cls-1" x1="551.22" y1="257.72" x2="551.22" y2="266.36"/><line class="cls-1" x1="562.46" y1="257.72" x2="562.46" y2="266.36"/><line class="cls-1" x1="573.69" y1="249.08" x2="573.69" y2="266.36"/><polygon class="cls-3" points="525.7 247.96 518.82 255.5 511.94 247.96 511.94 239.47 525.7 239.47 525.7 247.96"/><polygon class="cls-3" points="285.06 496.06 329.67 535.64 302.22 540.65 278.5 555.33 285.06 496.06"/></svg>