<?xml version="1.0" encoding="UTF-8"?>
<svg id="Layer_2" data-name="Layer 2" xmlns="http://www.w3.org/2000/svg" width="450" height="219.5282" xmlns:xlink="http://www.w3.org/1999/xlink" viewBox="0 0 450 219.5282">
  <defs>
    <linearGradient id="linear-gradient" x1="122.8601" y1="-124.0721" x2="330.4151" y2="-124.0721" gradientTransform="translate(0 42) scale(1 -1)" gradientUnits="userSpaceOnUse">
      <stop offset=".0035" stop-color="#c7017f"/>
      <stop offset=".25" stop-color="#d7007f"/>
      <stop offset=".5" stop-color="#e8308a"/>
      <stop offset=".75" stop-color="#f7a600"/>
      <stop offset="1" stop-color="#fdc300"/>
    </linearGradient>
  </defs>
  <g id="TAT">
    <g>
      <path d="M292.262,117.3459c12.7131-12.3882,40.3537,4.4353,53.7753-3.7471-2.8795,4.6647-11.9158,7.8767-15.5482,10.3621-15.1047,10.1706-12.9787,34.9092-26.5332,55.7098-16.0349,24.5861-52.2695,46.5336-98.1154,37.9687-40.7527-7.6089-57.0977-34.1832-64.4953-51.2367-6.3341-14.568-8.549-18.162-18.0725-25.8477,21.2621,6.08,30.4312,30.2451,68.7473,37.3952,31.0513,5.7738,68.216-1.5679,89.0352-23.4391,17.4969-18.4298,19.0027-28.2563,30.9624-34.4505-4.7393-1.0323-10.2321-5.2766-19.7557-2.7148Z" fill="url(#linear-gradient)"/>
      <g>
        <path d="M413.8988,54.4858c9.922,0,36.1012,1.6822,36.1012,27.7214,0,26.6122-27.9951,27.4535-38.8034,27.4535h-20.8631v-1.6826h2.3477c2.8344,0,3.7208-1.912,3.7208-4.2443v-49.248h17.4968ZM407.4759,60.4892v43.3594h2.2588c8.7707,0,16.5228-1.6057,22.4584-6.041,5.8912-4.4358,6.5113-12.2741,6.5113-15.6387s-.6201-10.6299-6.4674-15.6387c-5.8912-5.0088-16.1678-6.041-20.4647-6.041h-4.2964Z" fill="#e71984"/>
        <path d="M375.0559,54.4537v39.8801l-31.1841-39.8801h-9.8781v49.3246c0,2.2939-.8418,4.2443-3.7207,4.2443h-2.3477v1.682h16.8323v-39.2682l30.7412,39.2304h10.2326v-55.2131h-10.6755Z" fill="#e71984"/>
        <g>
          <path d="M290.9811,88.2104c3.8536,0,8.8151.3441,11.5612,7.1501l2.5249,6.9591c1.5059,3.6703,4.7399,5.5822,7.6632,6.4619,2.6133.7645,6.1574.8792,8.1061.8792h3.0123v-1.6442c-3.3668,0-5.8028-1.1854-7.796-6.1178l-3.6768-9.4062c-2.6133-6.6529-9.258-8.488-21.4393-8.488s-18.8699,1.8351-21.4393,8.488l-3.6763,9.4062c-1.9932,4.9325-4.4298,6.1178-7.796,6.1178v1.6442h3.0123c1.9487,0,5.4922-.1147,8.1061-.8792,2.9678-.8797,6.1568-2.7917,7.7071-6.4619l2.5249-6.9591c2.7906-6.806,7.7521-7.1501,11.6057-7.1501Z" fill="#fdc300"/>
          <path d="M288.8568,66.1098l6.5119,14.0324c4.9166.2294,9.5236.956,13.2888,2.8679l-13.7761-28.5243h-7.796l-13.5989,28.4475c2.5689-1.2617,5.5367-1.9882,8.6818-2.4086l6.6886-14.4149Z" fill="#e71984"/>
        </g>
        <path d="M255.8513,97.1583c-.6646,1.1854-1.373,2.1408-2.0821,2.8674-.7085.7266-1.5059,1.3001-2.3916,1.721-.8863.4204-1.9048.6882-3.0567.8407-1.1513.1531-2.6133.2294-4.2525.2294h-15.0603c-2.5694,0-3.6768-.7645-3.6768-2.2555v-46.1894h-10.7638v49.4009c0,2.2945-.8413,4.2443-3.6763,4.2443h-2.3477v1.6826h45.3592l3.3218-12.312-1.3731-.2294Z" fill="#e71984"/>
        <path d="M187.3263,54.3719v55.2894h16.8323v-1.6826h-2.3477c-2.835,0-3.7208-1.9114-3.7208-4.2437v-49.3631h-10.7638Z" fill="#e71984"/>
        <g>
          <path d="M149.2796,88.2104c3.8536,0,8.8146.3441,11.5612,7.1501l2.5244,6.9591c1.5064,3.6703,4.6954,5.5822,7.6632,6.4619,2.6139.7645,6.1573.8792,8.1066.8792h3.0117v-1.6442c-3.3663,0-5.8029-1.1854-7.796-6.1178l-3.6763-9.4062c-2.6139-6.6529-9.258-8.488-21.4838-8.488-12.1814,0-18.8699,1.8351-21.4393,8.488l-3.6763,9.4062c-1.9932,4.9325-4.4298,6.1178-7.796,6.1178v1.6442h3.0117c1.9493,0,5.4928-.1147,8.1066-.8792,2.9678-.8797,6.2013-2.7917,7.7071-6.4619l2.525-6.9591c2.7906-6.806,7.796-7.1501,11.6501-7.1501Z" fill="#fdc300"/>
          <path d="M147.1054,66.1098l6.5119,14.0324c4.9166.2294,9.568.956,13.2888,2.8679l-13.7761-28.5243h-7.796l-13.5989,28.4475c2.5689-1.2617,5.4928-1.9882,8.6818-2.4086l6.6886-14.4149Z" fill="#e71984"/>
        </g>
        <path d="M109.2766,108.0171c-2.835,0-3.7208-1.912-3.7208-4.2443v-49.4009h-10.7639v23.4006h-26.0019v-23.4006h-10.7638v49.4009c0,2.2945-.8418,4.2443-3.7209,4.2443h-2.3477v1.6826h16.8325v-24.8155h26.0019v24.777h16.8323v-1.6826h-2.3477v.0384Z" fill="#e71984"/>
        <path d="M50.8075,54.3719H.6201l-.6201,11.93h1.4175c.4873-1.9504,1.1517-3.9386,2.1262-4.5884,1.1074-.8034,3.1007-1.1854,5.2712-1.1854h11.5169v49.1332h16.8767v-1.6826h-2.3476c-2.835,0-3.7209-1.9114-3.7209-4.2437v-43.2069h11.2955c2.1705,0,3.8094.382,4.9168,1.0707.9302.726,1.8604,2.7527,2.392,4.7031h1.5504l-.4873-11.93Z" fill="#e71984"/>
      </g>
      <g>
        <path d="M326.7278,35.9412c-1.1964-1.1471-3.234-1.8735-5.5817-2.2177-4.2081-.65-12.2697-.2676-12.2697-1.9118,0-1.2236,2.1704-2.0647,2.5694-2.2177.8857.2676,1.9487.3823,3.189.4206,4.7843.0765,10.7199-3.0589,10.8083-8.9473,0-1.6442-.5757-3.4413-1.462-4.5118,1.3736-.3824,3.1451-2.0648,2.9239-5.0854-1.5064,1.3765-3.2779,1.6059-5.2716,1.6059h-2.126s-1.9048-.9941-4.7399-.9941c-5.3155,0-10.8966,3.4413-10.8966,9.062,0,4.0148,3.0123,6.2325,4.4737,7.1884-2.0816,1.4148-3.8536,2.6765-3.8536,4.5501,0,1.3765.8857,2.1794,1.2847,2.5236,3.4551,2.6765,11.384,1.3765,16.345,2.6765,2.7906.6882,2.7906,1.7971,2.7906,2.1794,0,.5353-.2656,1.0706-.9302,1.5677-.4873.3441-3.189,2.3324-8.549,2.3324s-8.195-1.6442-8.195-3.0589,1.5064-2.3324,4.6954-2.103c-.8413-.6883-2.3032-1.7971-4.3409-1.7971-3.4107.0382-5.4928,2.4089-5.4928,4.7795,0,2.0265,2.1265,5.5824,11.6057,5.5824,8.6823,0,14.6619-3.8236,14.6619-7.8766.0444-1.4147-.5757-2.7148-1.6387-3.7472ZM314.812,14.8348c3.0562,0,5.6256,2.5618,5.6256,6.2325,0,3.7854-2.7906,6.0795-5.6256,6.0795-2.7906,0-5.5811-2.2941-5.5811-6.0795,0-3.6324,2.5689-6.2325,5.5811-6.2325Z" fill="#e71984"/>
        <path d="M272.2429,12.3117v1.2618h1.1958c.709,0,1.2847.4971,1.2847,1.1089v22.4446h5.2272v-15.2945c0-1.797,1.8159-6.1177,6.2896-6.1177,3.4996,0,5.1827,1.7589,5.1827,5.3913v15.9827h7.7521v-1.2236h-1.1963c-.7085,0-1.2842-.497-1.2842-1.1088v-13.8415c0-4.2825-2.2593-8.8326-8.3722-8.8326-3.2779,0-6.1568,1.3-8.5934,3.8236v-3.5942h-7.486Z" fill="#e71984"/>
        <path d="M261.6124,0c-.7974,1.95-3.4107,2.9442-3.4107,5.2383,0,1.9883,3.4107,3.0971,3.4107,3.9766,0-.8794,3.4112-1.9883,3.4112-3.9766-.0444-2.2942-2.6583-3.2883-3.4112-5.2383ZM259.4403,37.0898h7.7077v-1.2236h-1.1519c-.7085,0-1.2847-.4971-1.2847-1.1089V12.3128h-1.9932l-5.8028,1.7589v1.1089h1.1964c.7085,0,1.3286.4971,1.3286,1.1089v20.8004Z" fill="#e71984"/>
        <path d="M250.7169,31.622l-.1773.3059c-.9302,1.5295-1.8604,2.2177-4.6065,2.2177h-11.384l15.4148-19.6533v-2.1795h-20.3319l-1.2842,5.2384,1.1514.2294.1773-.3058c.9302-1.4912,1.8604-2.2177,4.607-2.2177h9.0363l-15.3709,19.5769v2.2559h22.5907l1.2847-5.2766-1.1074-.1912Z" fill="#e71984"/>
        <path d="M222.7223,34.1834c-2.7022,1.6824-3.0123-.1147-3.0123-.8029v-13.4973c0-5.0854-3.3668-7.7619-9.7453-7.7619-6.9986,0-10.5421,3.8236-10.7194,3.9765l-.3545.3824,1.462.9559.2656-.2294c2.2593-1.453,5.0499-2.3706,7.4415-2.3706,2.171,0,6.6447,1.0706,6.6447,4.4354v1.6824c-5.2711.9176-16.3011,2.7912-16.3011,9.7884,0,5.1236,5.1383,6.5001,8.195,6.5001,1.8159,0,5.3594-.9559,7.1314-3.3266v-2.5236l-.8413.6118c-.8418.5735-2.2149,1.5295-4.5187,1.5295-2.2143,0-4.562-.9941-4.562-3.7472,0-2.6,4.0753-4.856,10.8966-5.9648v8.6414c0,4.0148,1.9932,4.6648,3.2334,4.6648s2.7906-.65,4.6509-1.9118l.6207-.4206-.4873-.6118Z" fill="#e71984"/>
        <path d="M192.3795,35.8652c-.7085,0-1.2841-.497-1.2841-1.1088v-13.8415c0-4.2825-2.2593-8.8326-8.3722-8.8326-3.2779,0-6.1568,1.3-8.5934,3.8236-.2656.2677-.4873.5353-.6646.803-1.1513-2.6001-3.4551-4.6266-7.5299-4.6266-3.234,0-5.9801,1.3-8.3722,3.8236v-3.5942h-7.5743v1.2618h1.1958c.7085,0,1.2847.4971,1.2847,1.1089v22.4446h5.2266v-15.2945c0-1.797,1.6392-6.1177,6.0684-6.1177,3.4996,0,5.2272,1.7589,5.2272,5.3913v15.9827h5.2711v-15.2944c0-1.7971,1.8165-6.1178,6.2902-6.1178,3.4996,0,5.2272,1.7589,5.2272,5.3913v16.0209h7.7516v-1.2236h-1.1519Z" fill="#e71984"/>
        <path d="M145.9551,34.1834c-2.6578,1.6824-3.0117-.1147-3.0117-.8029v-13.4973c0-5.0854-3.3668-7.7619-9.7453-7.7619-6.9547,0-10.5427,3.8236-10.7199,3.9765l-.354.3824,1.4614.9559.3101-.2294c2.2593-1.453,5.0499-2.3706,7.4421-2.3706,2.1704,0,6.6441,1.0706,6.6441,4.4354v1.6824c-5.3155.9176-16.3005,2.7912-16.3005,9.7884,0,5.1236,5.1383,6.5001,8.1944,6.5001,1.8604,0,5.36-.9559,7.132-3.3266v-2.5236l-.8863.6118c-.7974.5735-2.1704,1.5295-4.4737,1.5295-2.2149,0-4.5626-.9941-4.5626-3.7472,0-2.6,4.0753-4.856,10.8966-5.9648v8.6414c0,4.0148,1.9937,4.6648,3.234,4.6648,1.2842,0,2.7906-.65,4.6954-1.9118l.5757-.4206-.5318-.6118Z" fill="#e71984"/>
      </g>
    </g>
  </g>
</svg>